<?xml version="1.0" encoding="UTF-8" standalone="no"?>
<svg
   xmlns:dc="http://purl.org/dc/elements/1.1/"
   xmlns:cc="http://creativecommons.org/ns#"
   xmlns:rdf="http://www.w3.org/1999/02/22-rdf-syntax-ns#"
   xmlns:svg="http://www.w3.org/2000/svg"
   xmlns="http://www.w3.org/2000/svg"
   xmlns:sodipodi="http://sodipodi.sourceforge.net/DTD/sodipodi-0.dtd"
   xmlns:inkscape="http://www.inkscape.org/namespaces/inkscape"
   inkscape:version="1.0 (4035a4fb49, 2020-05-01)"
   sodipodi:docname="blue.svg"
   id="svg17"
   height="80"
   width="40"
   viewBox="39 8 40 80"
   version="1.1">
  <metadata
     id="metadata21">
    <rdf:RDF>
      <cc:Work
         rdf:about="">
        <dc:format>image/svg+xml</dc:format>
        <dc:type
           rdf:resource="http://purl.org/dc/dcmitype/StillImage" />
      </cc:Work>
    </rdf:RDF>
  </metadata>
  <sodipodi:namedview
     inkscape:current-layer="Canvas_1: Layer 1"
     inkscape:window-maximized="0"
     inkscape:window-y="150"
     inkscape:window-x="607"
     inkscape:cy="40"
     inkscape:cx="20"
     inkscape:zoom="3.1044776"
     showgrid="false"
     id="namedview19"
     inkscape:window-height="480"
     inkscape:window-width="828"
     inkscape:pageshadow="2"
     inkscape:pageopacity="0"
     guidetolerance="10"
     gridtolerance="10"
     objecttolerance="10"
     borderopacity="1"
     bordercolor="#666666"
     pagecolor="#ffffff" />
  <defs
     id="defs2" />
  <g
     fill-opacity="1"
     fill="none"
     stroke-dasharray="none"
     stroke-opacity="1"
     stroke="none"
     id="Canvas_1">
    <title
       id="title4">Canvas 1</title>
    <g
       id="Canvas_1: Layer 1">
      <title
         id="title6">Layer 1</title>
      <g
         id="Graphic_5">
        <rect
           id="rect8"
           height="80"
           width="40"
           y="8.5859"
           x="39.463717" />
      </g>
      <g
         style="fill:#000000"
         id="Group_2">
        <g
           style="fill:#000000"
           id="Graphic_3">
          <path
             style="fill:#000000"
             id="path11"
             fill="blue"
             d="M 54.327314 8.5859 C 50.914235 8.5859 48.151266 11.3509 48.151266 14.763324 C 48.15192 18.173126 50.91489 20.93937 54.327314 20.93937 C 57.73646 20.93937 60.50205 18.173126 60.50205 14.763324 C 60.50205 11.350245 57.73646 8.5859 54.327314 8.5859 Z M 47.50509 22.52395 C 43.13257 22.52395 39.555 26.067443 39.555 30.43406 L 39.555 49.59003 C 39.555 51.08096 40.728737 52.29205 42.222287 52.29205 C 43.71649 52.29205 44.92693 51.08227 44.92693 49.59003 L 44.92693 32.3182 L 46.30448 32.3182 C 46.30448 32.3182 46.33594 77.4137 46.33594 80.3759 C 46.33594 82.37472 47.959903 84 49.96135 84 C 51.96149 84 53.58218 82.37472 53.58218 80.3759 L 53.58218 52.47031 L 55.06983 52.47031 L 55.06983 80.3759 C 55.06983 82.37472 56.69052 84 58.69459 84 C 60.696035 84 62.33114 82.37472 62.33114 80.3759 L 62.33114 32.3182 L 63.72508 32.3182 L 63.72508 49.59003 C 63.72508 51.08096 64.93748 52.29205 66.42906 52.29205 C 67.92327 52.29205 69.09832 51.08227 69.09832 49.59003 L 69.09832 30.43406 C 69.09832 26.067443 65.51812 22.52395 61.14954 22.52395 L 47.50509 22.52395 Z" />
        </g>
      </g>
    </g>
  </g>
</svg>
